<?xml version="1.0" encoding="utf-8"?>
<!-- Generator: Adobe Illustrator 25.0.0, SVG Export Plug-In . SVG Version: 6.00 Build 0)  -->
<svg version="1.1" id="Layer_1" xmlns="http://www.w3.org/2000/svg" xmlns:xlink="http://www.w3.org/1999/xlink" x="0px" y="0px"
	 viewBox="0 0 800 800" style="enable-background:new 0 0 800 800;" xml:space="preserve">
<style type="text/css">
	.st0{fill:#FF4500;}
	.st1{fill:#FFFFFF;}
</style>
<g transform="translate(-85.4 -85.4)">
	<circle class="st0" cx="485.4" cy="485.4" r="400"/>
	<path class="st1" d="M752.1,485.4c0-32.3-26.2-58.5-58.5-58.5c-15.9,0-29.9,6.1-40.2,16.4c-39.8-28.5-95-47.3-155.8-49.6
		l26.7-124.9l86.5,18.2c0.9,22,19.2,39.8,41.6,39.8c22.9,0,41.6-18.7,41.6-41.6s-18.7-41.6-41.6-41.6c-16.4,0-30.4,9.4-37,23.4
		l-96.8-20.6c-2.8-0.5-5.6,0-8,1.4c-2.3,1.4-3.7,3.7-4.7,6.5l-29.5,139.4c-62.2,1.9-117.9,20.1-158.1,49.6
		c-10.3-9.8-24.8-16.4-40.2-16.4c-32.3,0-58.5,26.2-58.5,58.5c0,23.9,14,44,34.6,53.3c-0.9,5.6-1.4,11.7-1.4,17.8
		c0,89.8,104.3,162.3,233.5,162.3s233.5-72.5,233.5-162.3c0-6.1-0.5-11.7-1.4-17.3C737.6,529.8,752.1,509.3,752.1,485.4L752.1,485.4
		z M352.1,527c0-22.9,18.7-41.6,41.6-41.6s41.6,18.7,41.6,41.6c0,22.9-18.7,41.6-41.6,41.6S352.1,550,352.1,527z M584.6,637
		c-28.5,28.5-82.8,30.4-98.7,30.4c-15.9,0-70.6-2.3-98.7-30.4c-4.2-4.2-4.2-11.2,0-15.4c4.2-4.2,11.2-4.2,15.4,0
		c17.8,17.8,56.1,24.3,83.7,24.3c27.6,0,65.5-6.5,83.7-24.3c4.2-4.2,11.2-4.2,15.4,0C588.8,626.2,588.8,632.8,584.6,637L584.6,637z
		 M577.1,568.7c-22.9,0-41.6-18.7-41.6-41.6c0-22.9,18.7-41.6,41.6-41.6s41.6,18.7,41.6,41.6C618.7,550,600,568.7,577.1,568.7z"/>
</g>
</svg>
